<?xml version="1.0" encoding="UTF-8" standalone="no"?>
<!-- Created with Inkscape (http://www.inkscape.org/) -->

<svg
   xmlns:dc="http://purl.org/dc/elements/1.1/"
   xmlns:cc="http://creativecommons.org/ns#"
   xmlns:rdf="http://www.w3.org/1999/02/22-rdf-syntax-ns#"
   xmlns:svg="http://www.w3.org/2000/svg"
   xmlns="http://www.w3.org/2000/svg"
   xmlns:sodipodi="http://sodipodi.sourceforge.net/DTD/sodipodi-0.dtd"
   xmlns:inkscape="http://www.inkscape.org/namespaces/inkscape"
   width="370.14883mm"
   height="275.18695mm"
   viewBox="0 0 370.14883 275.18695"
   version="1.1"
   id="svg863"
   inkscape:version="0.92.2 (5c3e80d, 2017-08-06)"
   sodipodi:docname="siknas-mask-cut-extra.svg">
  <defs
     id="defs857" />
  <sodipodi:namedview
     id="base"
     pagecolor="#ffffff"
     bordercolor="#666666"
     borderopacity="1.0"
     inkscape:pageopacity="0.0"
     inkscape:pageshadow="2"
     inkscape:zoom="0.35"
     inkscape:cx="577.14903"
     inkscape:cy="655.53417"
     inkscape:document-units="mm"
     inkscape:current-layer="svg863"
     showgrid="false"
     inkscape:window-width="1920"
     inkscape:window-height="986"
     inkscape:window-x="-11"
     inkscape:window-y="-11"
     inkscape:window-maximized="1" />
  <metadata
     id="metadata860">
    <rdf:RDF>
      <cc:Work
         rdf:about="">
        <dc:format>image/svg+xml</dc:format>
        <dc:type
           rdf:resource="http://purl.org/dc/dcmitype/StillImage" />
        <dc:title></dc:title>
      </cc:Work>
    </rdf:RDF>
  </metadata>
  <path
     style="opacity:1;fill:#000000;fill-opacity:1;stroke:#000000;stroke-width:5.1961484;stroke-miterlimit:4;stroke-dasharray:none;stroke-opacity:1"
     d="M 2.5976562 2.5976562 L 2.5976562 1037.4785 L 1396.3887 1037.4785 L 1396.3887 2.5976562 L 2.5976562 2.5976562 z M 477.23828 98.861328 C 490.69073 99.039719 504.04235 118.689 534.41797 150 C 572.76698 189.529 572.82797 149.118 611.41797 227 L 546.41797 294 C 517.31296 280.868 519.08494 279.274 488.41797 250 C 466.94696 229.521 460.30596 220.326 431.41797 222 C 402.52994 223.674 373.37997 225.177 354.41797 248 C 330.04397 277.35 303.00615 268.19336 305.16016 305.31836 C 307.49115 345.54836 305.83397 359.21799 348.41797 394 L 372.5332 417.82617 C 436.40921 469.99817 442.45099 435.02099 501.41797 475 C 559.55897 514.01599 580.58698 584.44001 582.41797 683 C 583.85699 760.45998 595.43698 737.13002 565.41797 794 C 537.69899 846.49998 540.36299 896.89998 481.41797 917 C 415.69599 939.40999 329.07589 968.22967 289.21289 930.17969 C 240.12489 883.35988 267.14997 912.97997 210.41797 883 L 139.41797 873 C 121.52297 869.89999 92.80197 810.90998 115.41797 800 L 206.41797 779 C 258.04697 793.57 269.37797 792.66002 305.41797 816 C 340.85097 838.98002 345.75696 837.00999 380.41797 835 C 426.61797 832.31997 435.04897 775.24998 450.41797 745 C 477.44443 691.77998 506.12299 709.52 477.41797 653 C 457.44997 613.69 472.85597 617.71 429.41797 549 C 381.37896 473.43802 313.17997 506.00498 246.41797 454 C 197.86897 416.46498 225.24997 373.906 218.41797 306 C 211.57097 238.11 200.97197 207.022 262.41797 184 C 364.24397 146.143 423.07796 119.375 471.41797 100 C 473.39384 99.208 475.3165 98.835844 477.23828 98.861328 z M 1041.6621 140.42578 C 1046.3277 140.46984 1050.2055 141.83172 1053.293 144.51172 C 1058.233 148.79972 1062.2217 156.50243 1065.2617 167.62109 C 1067.9284 177.3531 1068.2412 185.38356 1066.2012 191.71289 L 1066.1973 191.71289 C 1064.1639 198.04289 1058.6583 202.4372 1049.6816 204.89453 C 1041.1416 207.23253 1034.582 206.27668 1030.002 202.02734 C 1025.4319 197.77801 1021.7416 190.53483 1018.9316 180.29883 A 87.188999 87.188999 0 0 1 1016.1113 165.78906 A 29.491 29.491 0 0 1 1016.9512 154.6582 A 16.254 16.254 0 0 1 1022.1113 146.72656 A 26.652 26.652 0 0 1 1032.4121 141.76953 C 1035.7796 140.84703 1038.8627 140.39934 1041.6621 140.42578 z M 969.85352 160.07422 C 974.50717 160.12208 978.36001 161.49094 981.41211 164.17969 C 986.29544 168.48169 990.2625 176.1925 993.3125 187.3125 C 995.97251 197.04383 996.31205 205.06619 994.33203 211.38086 L 994.32617 211.38086 C 992.34618 217.69553 986.86926 222.08173 977.89258 224.53906 C 969.33926 226.87773 962.74972 225.92998 958.12305 221.69531 C 953.49638 217.46065 949.78242 210.22428 946.98242 199.98828 A 86.252999 86.252999 0 0 1 944.15234 185.47852 A 29.487 29.487 0 0 1 944.99219 174.34961 A 16.259 16.259 0 0 1 950.23242 166.39453 A 27.308 27.308 0 0 1 960.61133 161.41406 C 963.98008 160.49206 967.06133 160.0455 969.85352 160.07422 z M 1225.4062 212.9707 A 70.054998 70.054998 0 0 1 1248.3477 216.87109 A 45.555999 45.555999 0 0 1 1276.6777 245.52344 A 70.099997 70.099997 0 0 1 1280.2168 270.05078 A 112.855 112.855 0 0 1 1278.4766 288.30273 C 1277.4132 294.18407 1276.3977 299.21396 1275.4277 303.39062 L 1245.627 302.91992 C 1245.657 294.00992 1245.4368 286.20953 1244.9668 279.51953 A 69.031997 69.031997 0 0 0 1242.0879 262.86523 C 1240.6246 258.4539 1238.5742 255.11246 1235.9375 252.8418 C 1233.3008 250.57113 1229.8276 249.40261 1225.5176 249.33594 A 19.23 19.23 0 0 0 1216.1172 251.25195 A 17.408 17.408 0 0 0 1209.9863 256.56055 A 21.217 21.217 0 0 0 1206.6367 263.97656 A 37.627 37.627 0 0 0 1205.5664 272.41211 A 39.406998 39.406998 0 0 0 1209.207 289.96289 A 136.59 136.59 0 0 0 1219.3164 307.61523 L 1252.9863 354.73047 C 1255.4297 358.3098 1258.2568 362.64561 1261.4668 367.73828 A 150.694 150.694 0 0 1 1270.5664 384.58984 A 121.75 121.75 0 0 1 1277.748 404.6543 A 86.732999 86.732999 0 0 1 1276.127 453.27734 A 54.022998 54.022998 0 0 1 1264.2363 473.04102 A 51.893 51.893 0 0 1 1245.2168 485.51562 A 67.399997 67.399997 0 0 1 1219.6875 489.63477 A 78.408 78.408 0 0 1 1197.5879 486.23828 A 45.399999 45.399999 0 0 1 1179.6973 475.93359 A 47.58 47.58 0 0 1 1167.8965 457.36914 C 1165.0664 449.72248 1163.7362 440.33001 1163.9062 429.19336 A 99.699999 99.699999 0 0 1 1165.627 412.12109 C 1166.6803 406.63508 1167.6865 402.26201 1168.6465 399 L 1198.957 399.48438 A 198.739 198.739 0 0 0 1199.8477 424.16797 C 1200.5943 430.79663 1201.9009 436.09141 1203.7676 440.05273 A 18.184 18.184 0 0 0 1211.3867 448.625 A 25.158 25.158 0 0 0 1223.1875 451.36523 C 1229.6542 451.46925 1234.398 449.44683 1237.418 445.29883 A 24.629 24.629 0 0 0 1242.0762 430.81836 A 32.951 32.951 0 0 0 1241.1875 422.54883 A 47.482998 47.482998 0 0 0 1238.418 414.54883 A 64.229998 64.229998 0 0 0 1233.9473 406.32031 C 1232.1739 403.54165 1230.1771 400.49755 1227.957 397.18555 L 1197.127 353.84961 C 1193.1303 347.89028 1189.2764 341.83493 1185.5664 335.68359 A 155.19 155.19 0 0 1 1175.8164 316.6582 A 122.454 122.454 0 0 1 1169.1562 296.21094 A 92.618997 92.618997 0 0 1 1166.8672 273.76758 C 1167.0305 263.28891 1168.7363 254.20739 1171.9863 246.52539 A 54.999999 54.999999 0 0 1 1184.8867 227.4668 A 50.751999 50.751999 0 0 1 1203.377 216.35742 A 64.537999 64.537999 0 0 1 1225.4062 212.9707 z M 1051.0586 242.34375 C 1053.3065 242.30171 1055.4601 242.38086 1057.5176 242.58203 A 41.676998 41.676998 0 0 1 1078.8477 250.5 C 1084.8443 254.97467 1089.9164 261.26137 1094.0664 269.35938 A 152.848 152.848 0 0 1 1105.0273 298.75977 L 1158.5117 494.19922 L 1127.623 502.65039 L 1118.5527 481.0918 A 56.040998 56.040998 0 0 1 1105.543 504.21289 L 1105.5371 504.21289 A 49.404998 49.404998 0 0 1 1081.7363 518.26758 A 37.074 37.074 0 0 1 1061.7773 518.53516 A 44.199999 44.199999 0 0 1 1044.4473 509.11523 A 65.079999 65.079999 0 0 1 1030.5664 491.61523 A 106.22 106.22 0 0 1 1020.8672 467.47461 A 112.178 112.178 0 0 1 1016.4863 437.90625 A 81.211997 81.211997 0 0 1 1020.418 412.58398 A 88.406997 88.406997 0 0 1 1031.9277 389.76562 A 160.833 160.833 0 0 1 1050.4863 367.87891 C 1053.9963 364.33557 1058.0138 360.62099 1062.5371 356.73633 C 1067.0604 352.85166 1071.1077 349.46922 1074.6777 346.58789 L 1065.2363 312.08789 C 1063.8497 307.02989 1062.397 302.36628 1060.877 298.09961 A 40.851001 40.851001 0 0 0 1055.3867 287.37891 A 17.187 17.187 0 0 0 1047.6367 281.3457 C 1044.6167 280.20104 1040.9171 280.22969 1036.5371 281.42969 A 21.489 21.489 0 0 0 1028.4375 285.68555 A 19.061 19.061 0 0 0 1022.8066 294.1543 A 37.625 37.625 0 0 0 1021.0273 307.67969 A 82.292999 82.292999 0 0 0 1024.2773 326.96289 L 1027.3867 338.33789 L 995.67773 347.01367 C 993.34105 342.35634 991.36782 338.04041 989.75781 334.06641 A 106.08 106.08 0 0 1 985.66797 322.04297 C 983.00796 312.31364 982.1068 303.32231 982.9668 295.07031 A 53.964 53.964 0 0 1 989.98633 272.97656 A 53.055999 53.055999 0 0 1 1005.498 256.4043 A 72.799997 72.799997 0 0 1 1028.2578 246.00586 C 1036.7153 243.69086 1044.3148 242.46988 1051.0586 242.34375 z M 884.99805 291.87891 C 892.56836 291.89458 899.7181 294.36154 906.44727 299.2832 C 917.21393 307.15787 926.36624 321.50302 933.90625 342.31836 L 1004.5918 537.25 L 964.07227 551.93164 L 894.01172 358.67383 C 889.95173 347.46583 885.63274 340.21578 881.05273 336.92578 C 876.47275 333.63578 871.30297 333.03695 865.54297 335.12695 C 861.4863 336.59829 858.01305 339.59829 855.12305 344.12695 A 44.962001 44.962001 0 0 0 849.10156 360.73633 L 923.72266 566.55859 L 883.21289 581.25 L 790.9668 326.83203 L 822.1875 315.51172 L 835.7168 341.33594 L 835.78711 341.52148 A 74.758001 74.758001 0 0 1 840.85742 323.27148 A 56.856 56.856 0 0 1 848.92773 309.79102 A 46.330998 46.330998 0 0 1 859.20703 300.41992 A 55.687 55.687 0 0 1 870.91797 294.5 C 875.76297 292.74325 880.45586 291.8695 884.99805 291.87891 z M 646.12891 291.93164 L 720.39648 483.83203 L 721.67773 483.33984 L 722.59766 355.48438 L 761.19727 340.54492 L 757.27734 474.82617 L 863.48633 591.13867 L 822.50781 607.00977 L 727.98633 499.65234 L 726.7168 500.14453 L 775.17188 625.32812 L 734.98242 640.87891 L 605.94141 307.48633 L 646.12891 291.93164 z M 565.88086 305.29297 C 569.8586 305.27968 573.46778 306.21689 576.70703 308.10352 C 582.46572 311.45752 587.05581 318.3636 590.48047 328.82227 C 593.65913 338.53493 594.00557 346.79738 591.51758 353.60938 C 589.02558 360.42204 583.73326 365.15274 575.64258 367.80273 C 568.08924 370.27607 561.27083 369.61312 555.1875 365.81445 C 549.10417 362.01579 544.41137 355.07428 541.10938 344.98828 A 52.625998 52.625998 0 0 1 538.19141 330.33008 A 24.406 24.406 0 0 1 540.05078 319.58789 A 19.527 19.527 0 0 1 546.08984 312.02734 A 32.915 32.915 0 0 1 555.92969 307.04883 C 559.47022 305.88916 562.78706 305.3033 565.88086 305.29297 z M 1083.4512 378.62695 C 1081.5278 380.23829 1079.393 382.11202 1077.043 384.25 A 71.799999 71.799999 0 0 0 1069.6719 392.17578 A 64.544999 64.544999 0 0 0 1063.0918 402.33008 A 52.613 52.613 0 0 0 1058.4121 415.22461 A 65.4 65.4 0 0 0 1056.8516 430.83203 A 71.890998 71.890998 0 0 0 1059.6016 448.93164 C 1062.3282 458.91899 1066.2212 466.47995 1071.2812 471.61328 L 1071.2773 471.61328 C 1076.3273 476.75062 1082.5779 478.29786 1090.0312 476.25586 A 19.884 19.884 0 0 0 1099.4414 470.31836 A 32.461 32.461 0 0 0 1105.8027 460.32617 L 1083.4512 378.62695 z M 607.43555 398.13086 L 691.65234 655.31836 L 650.69922 668.72852 L 566.48047 411.54102 L 607.43555 398.13086 z "
     transform="scale(0.26458333)"
     id="rect1426" />
  <path
     style="fill:#ffffff;stroke:#ffffff;stroke-width:0.26458332px;stroke-linecap:butt;stroke-linejoin:miter;stroke-opacity:1"
     d="m 147.53278,185.91893 144.97547,-48.73284 41.54066,-11.7025 -20.02716,-8.74161 -170.23075,59.55524 z"
     id="path1480"
     inkscape:connector-curvature="0"
     sodipodi:nodetypes="cccccc" />
</svg>
