<?xml version="1.0" encoding="UTF-8" standalone="no"?>
<!-- Created with Inkscape (http://www.inkscape.org/) -->

<svg
   xmlns:dc="http://purl.org/dc/elements/1.1/"
   xmlns:cc="http://creativecommons.org/ns#"
   xmlns:rdf="http://www.w3.org/1999/02/22-rdf-syntax-ns#"
   xmlns:svg="http://www.w3.org/2000/svg"
   xmlns="http://www.w3.org/2000/svg"
   xmlns:xlink="http://www.w3.org/1999/xlink"
   xmlns:sodipodi="http://sodipodi.sourceforge.net/DTD/sodipodi-0.dtd"
   xmlns:inkscape="http://www.inkscape.org/namespaces/inkscape"
   width="310.45398mm"
   height="224.85353mm"
   viewBox="0 0 310.45398 224.85353"
   version="1.1"
   id="svg4901"
   inkscape:version="0.92.2 (5c3e80d, 2017-08-06)"
   sodipodi:docname="siknas-n-only.svg">
  <defs
     id="defs4895">
    <radialGradient
       inkscape:collect="always"
       xlink:href="#linearGradient2278"
       id="radialGradient2284"
       cx="829.88672"
       cy="860.1311"
       fx="829.88672"
       fy="860.1311"
       r="586.68463"
       gradientTransform="matrix(0.85699308,-0.22950046,0.10293282,0.38436834,25.348367,861.29157)"
       gradientUnits="userSpaceOnUse" />
    <linearGradient
       inkscape:collect="always"
       id="linearGradient2278">
      <stop
         style="stop-color:#0a5176;stop-opacity:1;"
         offset="0"
         id="stop2274" />
      <stop
         style="stop-color:#084564;stop-opacity:1"
         offset="1"
         id="stop2276" />
    </linearGradient>
  </defs>
  <sodipodi:namedview
     id="base"
     pagecolor="#ffffff"
     bordercolor="#666666"
     borderopacity="1.0"
     inkscape:pageopacity="0.0"
     inkscape:pageshadow="2"
     inkscape:zoom="0.7"
     inkscape:cx="1048.7466"
     inkscape:cy="339.5362"
     inkscape:document-units="mm"
     inkscape:current-layer="Sikn채s"
     showgrid="false"
     inkscape:window-width="1920"
     inkscape:window-height="986"
     inkscape:window-x="-11"
     inkscape:window-y="-11"
     inkscape:window-maximized="1" />
  <metadata
     id="metadata4898">
    <rdf:RDF>
      <cc:Work
         rdf:about="">
        <dc:format>image/svg+xml</dc:format>
        <dc:type
           rdf:resource="http://purl.org/dc/dcmitype/StillImage" />
        <dc:title></dc:title>
      </cc:Work>
    </rdf:RDF>
  </metadata>
  <g
     inkscape:label="Layer 1"
     inkscape:groupmode="layer"
     id="layer1"
     transform="translate(377.47698,154.84939)">
    <g
       transform="matrix(0.26458333,0,0,0.26458333,-488.51672,-301.39161)"
       inkscape:label="Siknas"
       id="Sikn채s"
       style="display:inline;fill:url(#radialGradient2284);fill-opacity:1">
      <path
         inkscape:label="iknas_road_as_shape"
         style="fill:#000000;fill-opacity:1;fill-rule:evenodd"
         inkscape:connector-curvature="0"
         d="m 1195.795,1036.25 40.51,-14.69 -74.62,-205.823 c 0.8884,-5.88031 2.9346,-11.52595 6.02,-16.61 2.89,-4.52867 6.3633,-7.52867 10.42,-9 5.76,-2.09 10.93,-1.49 15.51,1.8 4.58,3.29 8.9,10.539 12.96,21.747 l 70.06,193.259 40.52,-14.683 -70.685,-194.93 c -7.54,-20.81533 -16.6933,-35.16033 -27.46,-43.035 -10.7667,-7.87467 -22.61,-9.46967 -35.53,-4.785 -4.123,1.50497 -8.0536,3.49209 -11.71,5.92 -3.8787,2.58853 -7.3444,5.7478 -10.28,9.371 -3.301,4.09885 -6.0169,8.63616 -8.07,13.482 -2.4569,5.84345 -4.1605,11.97565 -5.07,18.249 l -0.07,-0.185 -13.53,-25.825 -31.22,11.321 z"
         class="cls-1"
         data-name="ikn채s road as shape"
         id="ikn채s_road_as_shape"
         sodipodi:nodetypes="cccccsccccsccccccccc" />
    </g>
  </g>
</svg>
