<?xml version="1.0" encoding="UTF-8" standalone="no"?>
<!-- Created with Inkscape (http://www.inkscape.org/) -->

<svg
   xmlns:dc="http://purl.org/dc/elements/1.1/"
   xmlns:cc="http://creativecommons.org/ns#"
   xmlns:rdf="http://www.w3.org/1999/02/22-rdf-syntax-ns#"
   xmlns:svg="http://www.w3.org/2000/svg"
   xmlns="http://www.w3.org/2000/svg"
   xmlns:xlink="http://www.w3.org/1999/xlink"
   xmlns:sodipodi="http://sodipodi.sourceforge.net/DTD/sodipodi-0.dtd"
   xmlns:inkscape="http://www.inkscape.org/namespaces/inkscape"
   width="310.45398mm"
   height="224.85353mm"
   viewBox="0 0 310.45398 224.85353"
   version="1.1"
   id="svg5470"
   inkscape:version="0.92.2 (5c3e80d, 2017-08-06)"
   sodipodi:docname="siknas-a-only.svg">
  <defs
     id="defs5464">
    <radialGradient
       inkscape:collect="always"
       xlink:href="#linearGradient2278"
       id="radialGradient2284"
       cx="829.88672"
       cy="860.1311"
       fx="829.88672"
       fy="860.1311"
       r="586.68463"
       gradientTransform="matrix(0.85699308,-0.22950046,0.10293282,0.38436834,25.348367,861.29157)"
       gradientUnits="userSpaceOnUse" />
    <linearGradient
       inkscape:collect="always"
       id="linearGradient2278">
      <stop
         style="stop-color:#0a5176;stop-opacity:1;"
         offset="0"
         id="stop2274" />
      <stop
         style="stop-color:#084564;stop-opacity:1"
         offset="1"
         id="stop2276" />
    </linearGradient>
  </defs>
  <sodipodi:namedview
     id="base"
     pagecolor="#ffffff"
     bordercolor="#666666"
     borderopacity="1.0"
     inkscape:pageopacity="0.0"
     inkscape:pageshadow="2"
     inkscape:zoom="0.7"
     inkscape:cx="1065.1097"
     inkscape:cy="516.38308"
     inkscape:document-units="mm"
     inkscape:current-layer="Sikn채s"
     showgrid="false"
     inkscape:window-width="1920"
     inkscape:window-height="986"
     inkscape:window-x="-11"
     inkscape:window-y="-11"
     inkscape:window-maximized="1" />
  <metadata
     id="metadata5467">
    <rdf:RDF>
      <cc:Work
         rdf:about="">
        <dc:format>image/svg+xml</dc:format>
        <dc:type
           rdf:resource="http://purl.org/dc/dcmitype/StillImage" />
        <dc:title></dc:title>
      </cc:Work>
    </rdf:RDF>
  </metadata>
  <g
     inkscape:label="Layer 1"
     inkscape:groupmode="layer"
     id="layer1"
     transform="translate(175.6377,-36.406565)">
    <g
       transform="matrix(0.26458333,0,0,0.26458333,-286.67744,-110.13566)"
       inkscape:label="Siknas"
       id="Sikn채s"
       style="display:inline;fill:url(#radialGradient2284);fill-opacity:1">
      <path
         inkscape:label="iknas_road_as_shape"
         style="fill:#000000;fill-opacity:1;fill-rule:evenodd"
         inkscape:connector-curvature="0"
         d="m 1418.125,959.214 c 6.1247,-6.55462 10.5864,-14.48379 13.01,-23.121 l 9.07,21.559 30.89,-8.451 -53.485,-195.441 c -2.6351,-10.15002 -6.3078,-20.00192 -10.96,-29.4 -4.15,-8.098 -9.2233,-14.38433 -15.22,-18.859 -6.238,-4.56655 -13.6232,-7.30805 -21.33,-7.918 -8.23,-0.80467 -17.9833,0.33633 -29.26,3.423 -8.1301,2.12703 -15.8305,5.64566 -22.76,10.4 -6.3048,4.3402 -11.5959,9.9932 -15.51,16.571 -3.9129,6.76915 -6.3082,14.30774 -7.02,22.094 -0.86,8.252 0.04,17.24267 2.7,26.972 1.122,4.08609 2.4877,8.10128 4.09,12.024 1.61,3.974 3.5833,8.28967 5.92,12.947 l 31.71,-8.676 -3.11,-11.374 c -1.846,-6.27597 -2.937,-12.74967 -3.25,-19.284 -0.2357,-4.57913 0.3675,-9.16279 1.78,-13.525 1.0751,-3.28077 3.021,-6.20796 5.63,-8.469 2.3632,-1.98371 5.1258,-3.43528 8.1,-4.256 4.38,-1.2 8.08,-1.22767 11.1,-0.083 3.115,1.21409 5.8083,3.31035 7.75,6.032 2.3498,3.28307 4.1999,6.89635 5.49,10.722 1.52,4.26667 2.9733,8.929 4.36,13.987 l 9.44,34.5 c -3.57,2.88133 -7.6167,6.26433 -12.14,10.149 -4.5233,3.88467 -8.54,7.59867 -12.05,11.142 -6.8265,6.72837 -13.0379,14.05352 -18.56,21.888 -4.9215,7.00807 -8.7987,14.69402 -11.51,22.817 -2.6419,8.17982 -3.9684,16.72721 -3.93,25.323 0.1345,10.00726 1.6076,19.95151 4.38,29.568 2.2319,8.41407 5.4897,16.52187 9.7,24.141 3.5836,6.58964 8.2794,12.51015 13.88,17.5 4.9933,4.40532 10.9175,7.62549 17.33,9.42 6.5527,1.73722 13.4563,1.64452 19.96,-0.268 9.1089,-2.3249 17.3654,-7.20039 23.8,-14.054 z m -34.26,-32.6 c -5.06,-5.13333 -8.9533,-12.69367 -11.68,-22.681 -1.6843,-5.89148 -2.6084,-11.97413 -2.75,-18.1 -0.108,-5.24608 0.4158,-10.48609 1.56,-15.607 0.9906,-4.48416 2.5639,-8.81933 4.68,-12.895 1.8705,-3.58358 4.0735,-6.98352 6.58,-10.155 2.2538,-2.82331 4.7175,-5.4725 7.37,-7.925 2.35,-2.138 4.4867,-4.01267 6.41,-5.624 l 22.35,81.7 c -1.4893,3.69253 -3.6452,7.07957 -6.36,9.992 -2.5077,2.83451 -5.7722,4.89451 -9.41,5.938 -7.4533,2.042 -13.705,0.49433 -18.755,-4.643 z m -5.08,-279.9 c 2.04,-6.32933 1.7267,-14.36 -0.94,-24.092 -3.04,-11.11867 -7.03,-18.822 -11.97,-23.11 -4.94,-4.288 -11.9,-5.202 -20.88,-2.742 -3.7515,0.88826 -7.2657,2.57983 -10.3,4.958 -2.4684,2.07347 -4.2646,4.83413 -5.16,7.931 -0.986,3.62303 -1.2712,7.40102 -0.84,11.131 0.5276,4.90777 1.471,9.76188 2.82,14.51 2.81,10.236 6.5,17.47867 11.07,21.728 4.58,4.24933 11.14,5.205 19.68,2.867 8.9767,-2.45733 14.4817,-6.851 16.515,-13.181 z m -71.87,19.668 c 1.98,-6.31467 1.64,-14.33767 -1.02,-24.069 -3.05,-11.12 -7.0167,-18.831 -11.9,-23.133 -4.8833,-4.302 -11.8167,-5.22367 -20.8,-2.765 -3.7746,0.9035 -7.3132,2.60122 -10.38,4.98 -2.5017,2.06906 -4.3267,4.83966 -5.24,7.955 -0.986,3.62269 -1.2711,7.40036 -0.84,11.13 0.5263,4.90874 1.4731,9.76324 2.83,14.51 2.8,10.236 6.5133,17.47133 11.14,21.706 4.6267,4.23467 11.2167,5.18267 19.77,2.844 8.9767,-2.45733 14.455,-6.84333 16.435,-13.158 z"
         class="cls-1"
         data-name="ikn채s road as shape"
         id="ikn채s_road_as_shape"
         sodipodi:nodetypes="ccccccccccccccccccccccccccsccccccccccccccccccccccccccscccccccccccscccccsccc" />
    </g>
  </g>
</svg>
